<?xml version="1.0" encoding="UTF-8"?><svg id="Ebene_2" xmlns="http://www.w3.org/2000/svg" xmlns:xlink="http://www.w3.org/1999/xlink" viewBox="0 0 335.69 142.47"><defs><style>.cls-1{fill:#fff;}.cls-2{fill:url(#Unbenannter_Verlauf_78-5);}.cls-3{fill:url(#Unbenannter_Verlauf_78-2);}.cls-4{fill:url(#Unbenannter_Verlauf_108);}.cls-5{fill:#bdbcbc;}.cls-6{clip-path:url(#clippath);}.cls-7{fill:none;}.cls-8{fill:url(#Unbenannter_Verlauf_78-3);}.cls-9{fill:url(#Unbenannter_Verlauf_78-4);}.cls-10{fill:url(#Unbenannter_Verlauf_121);}.cls-11{fill:url(#Unbenannter_Verlauf_78);}.cls-12{fill:#1d1d1b;}</style><linearGradient id="Unbenannter_Verlauf_108" x1="69.86" y1="136.18" x2="69.86" y2="56.32" gradientUnits="userSpaceOnUse"><stop offset="0" stop-color="#24b0be"/><stop offset=".24" stop-color="#25717c"/><stop offset=".46" stop-color="#263b44"/><stop offset=".57" stop-color="#27272f"/></linearGradient><linearGradient id="Unbenannter_Verlauf_121" x1="47.96" y1="84.22" x2="105.78" y2="84.22" gradientUnits="userSpaceOnUse"><stop offset="0" stop-color="#2f606a"/><stop offset=".24" stop-color="#24b0be"/><stop offset=".45" stop-color="#8eccb7"/><stop offset=".92" stop-color="#fff"/></linearGradient><clipPath id="clippath"><polygon class="cls-7" points="72.81 49.1 71.34 48.35 67.03 50.05 65.59 49.53 64.27 50.41 63.92 51.59 64.33 52.97 58.93 57.65 56.38 62.99 46.89 71.19 45.77 80.95 52.79 96.44 56.44 98.26 60.25 94.45 57.33 93.96 57.83 88.58 57.19 85.05 62.12 88.52 66.11 88.6 69.03 85.68 64.47 85.57 62.47 80.84 64.61 75.4 69.11 82.15 71.71 83 74.9 79.82 71.57 79.29 70.53 71.61 81.7 71.03 84.57 70.16 87.78 66.94 81.97 67.22 76.37 66.46 73 62.38 74.78 58.1 75.74 53.98 77.78 51.51 77.39 49.34 76.19 47.32 72.81 49.1"/></clipPath><linearGradient id="Unbenannter_Verlauf_78" x1="150.25" y1="98.6" x2="150.25" y2="47.48" gradientUnits="userSpaceOnUse"><stop offset="0" stop-color="#24b0be"/><stop offset=".18" stop-color="#25717c"/><stop offset=".35" stop-color="#263b44"/><stop offset=".44" stop-color="#27272f"/></linearGradient><linearGradient id="Unbenannter_Verlauf_78-2" x1="245.05" y1="98.32" x2="245.05" y2="47.74" xlink:href="#Unbenannter_Verlauf_78"/><linearGradient id="Unbenannter_Verlauf_78-3" x1="285.19" y1="98.32" x2="285.19" y2="47.74" xlink:href="#Unbenannter_Verlauf_78"/><linearGradient id="Unbenannter_Verlauf_78-4" x1="208.35" y1="97.99" x2="208.35" y2="47.41" xlink:href="#Unbenannter_Verlauf_78"/><linearGradient id="Unbenannter_Verlauf_78-5" x1="185.33" y1="66.31" x2="185.33" y2="39.17" xlink:href="#Unbenannter_Verlauf_78"/></defs><rect class="cls-4" x="33.94" y="35.31" width="71.85" height="71.85" rx="17.53" ry="17.53"/><path class="cls-10" d="m105.78,61.27l-11.22,11.35-5.85-6.61-40.75,40.8c1.13.23,2.3.35,3.5.35h7.81l29.09-29.11,5.88,6.65,11.54-11.68v-11.76Z"/><polygon class="cls-1" points="72.81 49.1 71.34 48.35 67.03 50.05 65.59 49.53 64.27 50.41 63.92 51.59 64.33 52.97 58.93 57.65 56.38 62.99 46.89 71.19 45.77 80.95 52.79 96.44 56.44 98.26 60.25 94.45 57.33 93.96 57.83 88.58 57.19 85.05 62.12 88.52 66.11 88.6 69.03 85.68 64.47 85.57 62.47 80.84 64.61 75.4 69.11 82.15 71.71 83 74.9 79.82 71.57 79.29 70.53 71.61 81.7 71.03 84.57 70.16 87.78 66.94 81.97 67.22 76.37 66.46 73 62.38 74.78 58.1 75.74 53.98 77.78 51.51 77.39 49.34 76.19 47.32 72.81 49.1"/><g class="cls-6"><path class="cls-5" d="m57.26,85.09l1.55-1.92,3.19-6.4,2.62-1.37,4.9,10.23s-6.76,10.89-6.66,10.23-5.59-10.77-5.59-10.77h-.01Z"/><polygon class="cls-5" points="72.03 66.97 70.53 71.61 74.65 74.24 83.38 72.89 87.01 67.92 82.02 69.82 77.35 70.06 72.03 66.97"/></g><path class="cls-11" d="m154.57,75.46c2.36,0,4.25-.52,6.01-1.38v-14.91h11.24v22.1c-4.7,3.27-10.33,5.36-17.52,5.36-13.73,0-25.62-9.87-25.62-25.56s11.96-25.55,25.69-25.55h15.27l.03,11.48s-9.36.04-13.68.04c-9.02,0-14.84,6.28-14.84,14.32s5.68,14.12,13.4,14.12v-.02Z"/><path class="cls-3" d="m228.92,35.45h32.27v11.6h-19.39v10.91h18.1v10.91h-18.1v17.15h-12.89v-50.58h0Z"/><path class="cls-8" d="m269.06,35.45h32.27v11.6h-19.39v10.91h18.1v10.91h-18.1v17.15h-12.89v-50.58h0Z"/><polygon class="cls-9" points="210.48 35.45 192.58 67.11 192.58 86.03 205.4 86.03 205.4 66.23 224.11 35.45 210.48 35.45"/><polygon class="cls-2" points="196.92 50.85 188.12 35.45 173.74 35.45 190.32 62.59 196.92 50.85"/><path class="cls-12" d="m160.03,102.72l2.12-5.06h1.33l-4.24,9.46h-1.35l1.42-3.18-2.58-6.28h1.35l1.94,5.06Z"/><path class="cls-12" d="m167.39,104.13c-.65,0-1.22-.15-1.72-.44-.5-.29-.9-.68-1.18-1.18-.29-.5-.43-1.06-.43-1.69s.14-1.19.43-1.7c.29-.5.68-.91,1.18-1.2.5-.3,1.08-.44,1.72-.44s1.21.15,1.71.44.89.7,1.17,1.2c.28.5.42,1.07.42,1.7s-.14,1.19-.42,1.69c-.28.5-.67.89-1.17,1.18-.5.29-1.07.44-1.71.44Zm0-1.14c.41,0,.76-.09,1.07-.28s.54-.45.71-.78c.17-.33.25-.7.25-1.11s-.08-.79-.25-1.12c-.17-.33-.4-.59-.71-.79-.3-.19-.66-.29-1.07-.29s-.77.1-1.08.29c-.31.19-.54.46-.72.79-.17.33-.26.7-.26,1.12s.08.78.26,1.11.41.59.72.78c.31.19.67.28,1.08.28Z"/><path class="cls-12" d="m173.4,100.83c0,.66.14,1.18.42,1.57.28.39.72.58,1.3.58s1.03-.2,1.31-.58c.28-.39.42-.92.42-1.57v-3.17h1.32v3.35c0,.61-.12,1.15-.36,1.62-.24.47-.58.84-1.03,1.1-.45.26-1,.39-1.66.39s-1.2-.13-1.65-.39c-.45-.26-.8-.63-1.03-1.1-.24-.47-.36-1.01-.36-1.62v-3.35h1.31v3.17Z"/><path class="cls-12" d="m181.29,103.94h-1.32v-6.28h1.32v1.09h-.04c.03-.13.12-.3.28-.5.16-.2.39-.38.67-.54.29-.16.63-.24,1.03-.24.29,0,.55.04.77.12s.38.16.47.23l-.54,1.1c-.07-.07-.2-.14-.38-.22s-.4-.11-.67-.11c-.34,0-.62.1-.86.31-.24.21-.42.46-.55.75s-.19.56-.19.81v3.46Z"/><path class="cls-12" d="m188.57,97.66h1.29v-1.78c0-.64.11-1.15.33-1.54s.5-.67.85-.85c.34-.18.7-.26,1.06-.26.44,0,.78.06,1.01.18.24.12.38.2.42.25l-.54,1.02s-.1-.09-.24-.17c-.13-.08-.31-.12-.54-.12-.17,0-.33.04-.49.12-.16.08-.29.24-.4.47-.11.23-.16.58-.16,1.05v1.63h1.79v1.14h-1.79v5.14h-1.32v-5.14h-1.29v-1.14Zm6.42-2.15c-.24,0-.45-.08-.62-.26s-.26-.38-.26-.62.08-.45.26-.62c.17-.17.38-.26.62-.26.16,0,.3.04.44.12.13.08.24.19.33.32s.12.28.12.44c0,.24-.09.45-.26.62s-.38.26-.63.26Zm-.68,8.43v-6.28h1.33v6.28h-1.33Z"/><path class="cls-12" d="m201.18,97.48c.41,0,.81.09,1.21.26.39.17.71.45.96.82.25.38.38.86.38,1.46v3.92h-1.35v-3.66c0-.62-.15-1.08-.44-1.36-.29-.28-.67-.42-1.12-.42-.3,0-.59.09-.87.26-.28.17-.51.41-.68.7-.18.3-.27.64-.27,1.01v3.47h-1.33v-6.28h1.33v1.12c.05-.17.17-.36.37-.57s.46-.38.78-.52c.32-.14.66-.21,1.03-.21Z"/><path class="cls-12" d="m210.52,103.94v-1.22c-.04.13-.16.3-.36.53s-.46.43-.8.61-.74.27-1.2.27c-.58,0-1.11-.14-1.58-.41s-.85-.66-1.12-1.16c-.28-.5-.42-1.08-.42-1.75s.14-1.25.42-1.75c.28-.5.65-.88,1.12-1.16.47-.28,1-.42,1.58-.42.45,0,.85.08,1.18.24s.6.35.8.57c.2.21.32.4.36.55v-1.18h1.32v6.28h-1.3Zm-4.16-3.14c0,.45.1.85.3,1.18.2.33.46.59.78.77.32.18.66.27,1.02.27.39,0,.73-.09,1.04-.28s.55-.44.73-.78.27-.72.27-1.17-.09-.83-.27-1.17-.42-.59-.73-.78c-.31-.19-.65-.28-1.04-.28-.36,0-.7.09-1.02.28-.32.18-.58.44-.78.77-.2.33-.3.72-.3,1.18Z"/><path class="cls-12" d="m217.12,97.48c.41,0,.81.09,1.21.26.39.17.71.45.96.82.25.38.38.86.38,1.46v3.92h-1.35v-3.66c0-.62-.15-1.08-.44-1.36-.29-.28-.67-.42-1.12-.42-.3,0-.59.09-.87.26-.28.17-.51.41-.68.7-.18.3-.27.64-.27,1.01v3.47h-1.33v-6.28h1.33v1.12c.05-.17.17-.36.37-.57s.46-.38.78-.52c.32-.14.66-.21,1.03-.21Z"/><path class="cls-12" d="m224.37,103.02c.4,0,.72-.06.96-.19.25-.13.4-.22.46-.28l.65.96c-.05.05-.17.12-.36.22-.19.1-.44.19-.73.27-.3.08-.64.12-1.01.12-.58,0-1.11-.13-1.61-.39-.5-.26-.89-.63-1.2-1.13s-.46-1.1-.46-1.81.15-1.32.46-1.82.7-.87,1.2-1.12c.49-.25,1.03-.38,1.61-.38.37,0,.7.04.99.13.29.09.53.19.72.29.19.11.31.19.38.25l-.66.96s-.12-.1-.23-.19c-.12-.08-.27-.16-.46-.23-.19-.07-.43-.11-.7-.11-.33,0-.64.09-.95.26s-.56.43-.76.76c-.2.33-.3.73-.3,1.19s.1.86.3,1.2c.2.33.45.59.76.77s.63.26.95.26Z"/><path class="cls-12" d="m228.56,95.51c-.24,0-.45-.08-.62-.26s-.26-.38-.26-.62.08-.45.26-.62c.17-.17.38-.26.62-.26.16,0,.3.04.44.12.13.08.24.19.33.32.08.13.12.28.12.44,0,.24-.09.45-.26.62-.17.17-.38.26-.63.26Zm-.68,8.43v-6.28h1.33v6.28h-1.33Z"/><path class="cls-12" d="m236.29,103.94v-1.22c-.04.13-.16.3-.36.53s-.46.43-.8.61-.74.27-1.2.27c-.58,0-1.11-.14-1.58-.41s-.85-.66-1.12-1.16c-.28-.5-.42-1.08-.42-1.75s.14-1.25.42-1.75c.28-.5.65-.88,1.12-1.16.47-.28,1-.42,1.58-.42.45,0,.85.08,1.18.24s.6.35.8.57c.2.21.32.4.36.55v-1.18h1.32v6.28h-1.3Zm-4.16-3.14c0,.45.1.85.3,1.18.2.33.46.59.78.77.32.18.66.27,1.02.27.39,0,.73-.09,1.04-.28s.55-.44.73-.78.27-.72.27-1.17-.09-.83-.27-1.17-.42-.59-.73-.78c-.31-.19-.65-.28-1.04-.28-.36,0-.7.09-1.02.28-.32.18-.58.44-.78.77-.2.33-.3.72-.3,1.18Z"/><path class="cls-12" d="m240.76,103.94h-1.34v-10.53h1.34v10.53Z"/><path class="cls-12" d="m245.9,97.66h1.29v-1.78c0-.64.11-1.15.33-1.54s.5-.67.85-.85c.34-.18.7-.26,1.06-.26.44,0,.78.06,1.01.18.24.12.38.2.42.25l-.54,1.02s-.1-.09-.24-.17c-.13-.08-.31-.12-.54-.12-.17,0-.33.04-.49.12-.16.08-.29.24-.4.47-.11.23-.16.58-.16,1.05v1.63h1.79v1.14h-1.79v5.14h-1.32v-5.14h-1.29v-1.14Z"/><path class="cls-12" d="m252.8,103.94h-1.32v-6.28h1.32v1.09h-.04c.03-.13.12-.3.28-.5.16-.2.39-.38.67-.54.29-.16.63-.24,1.03-.24.29,0,.55.04.77.12s.38.16.47.23l-.54,1.1c-.07-.07-.2-.14-.38-.22s-.4-.11-.67-.11c-.34,0-.62.1-.86.31-.24.21-.42.46-.55.75s-.19.56-.19.81v3.46Z"/><path class="cls-12" d="m257.54,101.07c0,.38.09.72.25,1.03s.39.56.71.74c.31.18.7.28,1.16.28.39,0,.72-.06.99-.17.27-.12.5-.25.67-.41.17-.16.3-.3.38-.43l.65.8c-.17.25-.37.46-.62.64s-.54.33-.88.42c-.35.1-.77.15-1.27.15-.67,0-1.26-.14-1.75-.43s-.87-.69-1.14-1.2c-.27-.51-.4-1.1-.4-1.76,0-.61.12-1.16.38-1.66.25-.49.61-.88,1.09-1.17.48-.29,1.05-.43,1.72-.43.62,0,1.15.13,1.61.39.46.26.81.62,1.06,1.09.25.47.38,1.03.38,1.68,0,.04,0,.11,0,.22s0,.18-.02.22h-4.96Zm3.72-1c0-.21-.07-.44-.18-.69-.11-.25-.3-.46-.55-.64-.25-.18-.6-.27-1.03-.27s-.81.09-1.08.26c-.27.17-.47.38-.6.63-.13.25-.2.48-.22.71h3.67Z"/><path class="cls-12" d="m264.83,101.07c0,.38.09.72.25,1.03s.39.56.71.74c.31.18.7.28,1.16.28.39,0,.72-.06.99-.17.27-.12.5-.25.67-.41.17-.16.3-.3.38-.43l.65.8c-.17.25-.37.46-.62.64s-.54.33-.88.42c-.35.1-.77.15-1.27.15-.67,0-1.26-.14-1.75-.43s-.87-.69-1.14-1.2c-.27-.51-.4-1.1-.4-1.76,0-.61.12-1.16.38-1.66.25-.49.61-.88,1.09-1.17.48-.29,1.05-.43,1.72-.43.62,0,1.15.13,1.61.39.46.26.81.62,1.06,1.09.25.47.38,1.03.38,1.68,0,.04,0,.11,0,.22s0,.18-.02.22h-4.96Zm3.72-1c0-.21-.07-.44-.18-.69-.11-.25-.3-.46-.55-.64-.25-.18-.6-.27-1.03-.27s-.81.09-1.08.26c-.27.17-.47.38-.6.63-.13.25-.2.48-.22.71h3.67Z"/><path class="cls-12" d="m274.05,104.13c-.58,0-1.09-.14-1.55-.41s-.82-.66-1.08-1.16-.39-1.08-.39-1.75.13-1.25.39-1.75.62-.88,1.08-1.16c.46-.28.97-.42,1.55-.42.46,0,.87.08,1.22.24.35.16.63.35.84.56s.33.4.36.56v-5.42h1.34v10.53h-1.32v-1.22c-.06.17-.2.37-.42.59-.22.22-.51.41-.85.57-.35.16-.74.25-1.18.25Zm.31-1.1c.39,0,.74-.09,1.06-.28.32-.18.58-.44.77-.78s.29-.72.29-1.17-.1-.83-.29-1.17-.45-.59-.77-.78c-.32-.19-.68-.28-1.06-.28-.36,0-.69.09-1,.28-.31.18-.55.44-.74.77-.19.33-.28.72-.28,1.18s.09.85.28,1.18c.19.33.43.59.74.77.31.18.64.27,1,.27Z"/><path class="cls-12" d="m282.21,104.13c-.65,0-1.22-.15-1.72-.44-.5-.29-.9-.68-1.18-1.18-.29-.5-.43-1.06-.43-1.69s.14-1.19.43-1.7c.29-.5.68-.91,1.18-1.2.5-.3,1.08-.44,1.72-.44s1.21.15,1.71.44.89.7,1.17,1.2c.28.5.42,1.07.42,1.7s-.14,1.19-.42,1.69c-.28.5-.67.89-1.17,1.18-.5.29-1.07.44-1.71.44Zm0-1.14c.41,0,.76-.09,1.07-.28s.54-.45.71-.78c.17-.33.25-.7.25-1.11s-.08-.79-.25-1.12c-.17-.33-.4-.59-.71-.79-.3-.19-.66-.29-1.07-.29s-.77.1-1.08.29c-.31.19-.54.46-.72.79-.17.33-.26.7-.26,1.12s.08.78.26,1.11.41.59.72.78c.31.19.67.28,1.08.28Z"/><path class="cls-12" d="m294.51,97.48c.46,0,.86.1,1.19.3.33.2.58.51.76.92s.26.94.26,1.58v3.66h-1.32v-3.39c0-.68-.09-1.19-.28-1.53s-.53-.51-1.03-.51c-.27,0-.52.07-.76.22-.24.15-.44.37-.6.67s-.23.69-.23,1.16v3.39h-1.24v-3.39c0-.68-.12-1.19-.35-1.53s-.56-.51-.99-.51c-.27,0-.52.07-.76.21-.24.14-.43.36-.58.66-.15.3-.22.69-.22,1.17v3.39h-1.32v-6.28h1.32v.96c.06-.16.18-.33.36-.5.19-.18.43-.33.72-.46.29-.12.62-.19.98-.19s.69.08.95.23c.25.15.46.34.6.56.15.22.25.44.31.64.07-.22.21-.44.41-.66s.46-.41.77-.55.66-.22,1.03-.22Z"/><path class="cls-12" d="m299.99,104.13c-.28,0-.52-.1-.72-.3-.2-.2-.3-.44-.3-.72s.1-.54.3-.74c.2-.2.44-.3.72-.3s.54.1.73.3c.2.2.3.45.3.74s-.1.52-.3.72c-.2.2-.44.3-.73.3Z"/><path class="cls-12" d="m134.24,98.57h5v.54c0,.69-.12,1.34-.36,1.95-.24.61-.58,1.14-1.02,1.6s-.95.82-1.54,1.08c-.59.26-1.24.39-1.94.39s-1.38-.13-1.98-.4c-.6-.27-1.12-.64-1.56-1.11s-.78-1.02-1.02-1.64c-.24-.62-.36-1.28-.36-1.99s.12-1.36.36-1.98c.24-.62.58-1.17,1.02-1.63s.96-.84,1.56-1.11c.6-.27,1.26-.4,1.98-.4.49,0,.94.05,1.35.16.41.11.78.26,1.1.45.33.19.62.41.87.65.25.24.48.5.66.77l-1.16.62c-.3-.42-.69-.76-1.16-1.03-.47-.27-1.02-.41-1.67-.41-.52,0-1,.1-1.44.31s-.82.49-1.14.85c-.32.36-.57.77-.75,1.25-.18.47-.26.97-.26,1.5s.09,1.03.26,1.5c.17.47.42.89.75,1.25.32.36.7.65,1.14.85s.92.31,1.44.31.95-.08,1.36-.25c.41-.17.77-.4,1.07-.71.3-.3.54-.65.72-1.05.17-.4.27-.83.29-1.29h-3.58v-1.04Z"/><path class="cls-12" d="m141.51,101.14c0,.37.08.71.24,1.01.15.3.39.55.69.73.31.18.69.27,1.14.27.38,0,.7-.06.97-.17.27-.11.49-.25.66-.4.17-.16.29-.3.37-.42l.64.79c-.17.24-.37.45-.6.63-.24.18-.53.32-.87.42-.34.1-.75.15-1.25.15-.66,0-1.23-.14-1.71-.42-.48-.28-.85-.67-1.11-1.18-.26-.5-.39-1.08-.39-1.73,0-.6.12-1.14.37-1.62.24-.48.6-.86,1.07-1.14.47-.28,1.03-.42,1.69-.42.6,0,1.13.13,1.58.38.45.25.8.61,1.04,1.07.25.46.37,1.01.37,1.65,0,.04,0,.11,0,.21s0,.17-.01.21h-4.87Zm3.65-.98c0-.21-.06-.43-.18-.67s-.29-.46-.54-.63c-.25-.18-.59-.26-1.01-.26s-.79.08-1.06.25-.46.38-.59.62c-.12.24-.2.47-.22.69h3.6Z"/><path class="cls-12" d="m147.31,97.79h1.21v-2.53h1.3v2.53h1.58v1.12h-1.58v3.04c0,.36.06.62.19.79.13.17.3.25.51.25.19,0,.34-.03.44-.1s.17-.12.19-.14l.52.96s-.11.07-.24.14-.3.13-.5.19c-.21.05-.44.08-.72.08-.48,0-.88-.15-1.2-.44-.32-.29-.48-.76-.48-1.39v-3.39h-1.21v-1.12Z"/></svg>